<?xml version="1.0" encoding="UTF-8"?>
<!DOCTYPE svg PUBLIC "-//W3C//DTD SVG 1.1//EN" "http://www.w3.org/Graphics/SVG/1.1/DTD/svg11.dtd">
<svg xmlns="http://www.w3.org/2000/svg" xml:space="preserve" width="‭‭73.38214601424‬px" height="45.158273007624px" version="1.1" style="shape-rendering:geometricPrecision; text-rendering:geometricPrecision; image-rendering:optimizeQuality; fill-rule:evenodd; clip-rule:evenodd"
viewBox="0 0 3852.32 2370.66" xmlns:xlink="http://www.w3.org/1999/xlink">
 <defs>
  <style type="text/css">
   <![CDATA[
    .fil0 {fill:#000000;fill-rule:nonzero}
   ]]>
  </style>
 </defs>
 <g id="Layer_x0020_1">
  <path class="fil0" d="M1462.48 1297.21c17.55,8.77 29.06,21.38 34.54,37.83 5.49,16.45 3.84,33.45 -4.93,51 -63.61,129.41 -129.96,253.89 -199.05,373.43 -69.09,119.54 -135.45,217.69 -199.05,294.46 -142.58,171.09 -270.89,256.63 -384.95,256.63 -19.74,0 -39.48,-3.29 -59.22,-9.87 -142.57,-35.09 -237.98,-207.28 -286.24,-516.55 -39.48,-256.63 -49.35,-614.15 -29.61,-1072.57l-236.89 29.61c-17.54,0 -32.35,-5.49 -44.41,-16.45 -12.07,-10.97 -19.2,-25.23 -21.39,-42.77 -2.19,-17.55 2.74,-33.45 14.81,-47.71 12.06,-14.26 26.86,-22.48 44.41,-24.68l250.05 -29.61c2.19,-37.29 4.39,-75.67 6.58,-115.15 2.19,-39.48 5.48,-78.96 9.87,-118.45 4.39,-65.8 10.97,-118.99 20.84,-159.57 9.87,-40.57 20.29,-72.38 31.8,-95.41 12.07,-23.03 24.13,-39.48 37.29,-49.35 12.61,-9.87 24.68,-17 35.1,-21.39 8.77,-4.38 24.12,-5.48 44.96,-3.29 21.39,2.2 44.42,16.45 68.54,42.77 31.26,39.49 55.94,102 73.48,187.54 18.1,85.54 24.68,180.96 20.29,286.24l227.02 -29.61c17.55,-2.19 33.45,2.74 47.71,14.81 14.25,12.06 22.48,26.86 24.67,44.41 2.2,17.55 -2.74,33.45 -14.8,47.71 -12.07,14.26 -26.87,22.48 -44.42,24.67l-250.05 32.91c-10.97,92.12 -32.9,196.31 -65.25,312.56 -32.35,116.25 -83.9,240.17 -155.19,371.78 -2.19,0 -3.29,1.09 -3.29,3.29 4.39,76.77 8.78,149.15 13.16,217.15 4.94,67.99 12.62,130.5 23.58,187.53 13.16,83.35 28.52,150.8 44.97,202.34 17,51.55 33.45,92.67 49.9,123.38 17,30.71 33.45,52.64 50.45,65.8 16.45,13.17 31.8,20.84 44.96,23.04 37.29,10.96 82.25,-1.65 134.9,-37.84 52.64,-36.19 110.76,-91.58 174.37,-166.15 61.42,-72.38 125.57,-166.7 192.47,-282.95 66.9,-116.25 129.96,-236.89 189.19,-361.91 8.77,-17.55 21.38,-29.07 37.83,-34.55 16.45,-5.48 33.45,-3.84 51,4.94zm-977.16 -940.98c-4.39,37.29 -7.13,72.39 -8.23,105.29 -1.1,32.9 -2.74,65.8 -4.94,98.7l82.26 -9.87c0,-4.39 0.55,-9.32 1.64,-14.8 1.1,-5.49 1.65,-11.52 1.65,-18.1 4.38,-85.54 1.09,-156.28 -9.87,-212.21 -10.97,-55.93 -21.94,-97.06 -32.9,-123.38 -4.94,15.35 -9.87,36.74 -14.81,64.16 -4.93,27.41 -9.87,64.15 -14.8,110.21zm-19.75 338.89c-6.58,122.83 -9.87,236.88 -9.87,342.17 20.29,-57.03 37.84,-115.16 51.55,-174.38 13.71,-59.22 24.68,-118.44 34,-177.66l-75.68 9.87z"/>
  <path id="1" class="fil0" d="M1755.29 2313.85c-19.74,0 -39.48,-3.29 -59.22,-9.87 -142.57,-35.09 -237.98,-207.28 -286.24,-516.55 -50.45,-331.2 -52.64,-810.46 -6.58,-1437.78 4.39,-65.8 11.52,-118.99 21.39,-159.57 9.87,-40.57 20.83,-72.38 32.9,-95.41 12.06,-23.03 24.67,-39.48 37.83,-49.35 13.16,-9.87 25.23,-17 36.2,-21.39 8.77,-4.38 23.57,-5.48 44.41,-3.29 20.84,2.2 43.32,16.45 67.45,42.77 32.9,39.49 57.58,103.1 74.03,190.83 16.45,87.74 22.48,186.44 18.09,296.11 -4.38,96.51 -21.93,214.41 -52.64,353.69 -30.71,139.28 -88.83,290.08 -174.38,452.39 -2.19,0 -3.29,1.09 -3.29,3.29 4.39,76.77 8.78,149.15 13.16,217.15 4.39,67.99 12.07,130.5 23.04,187.53 13.16,83.35 27.96,150.8 44.41,202.34 16.45,51.55 32.9,92.67 49.35,123.38 16.45,30.71 32.9,52.64 49.36,65.8 16.45,13.17 31.25,20.84 44.41,23.04 37.29,10.96 82.25,-1.65 134.9,-37.84 52.64,-36.19 110.76,-91.58 174.37,-166.15 61.42,-72.38 124.48,-167.25 189.18,-284.6 64.71,-117.34 126.67,-238.53 185.89,-363.55 8.78,-17.55 21.39,-29.07 37.84,-34.55 16.45,-5.48 33.45,-3.84 51,4.94 17.55,8.77 29.06,21.38 34.54,37.83 5.49,16.45 3.84,33.45 -4.93,51 -63.61,129.41 -128.86,254.43 -195.76,375.07 -66.9,120.64 -132.16,219.34 -195.76,296.11 -142.58,171.09 -270.89,256.63 -384.95,256.63zm-194.11 -2128.7c-4.39,15.35 -8.78,36.74 -13.16,64.16 -4.39,27.41 -8.78,64.15 -13.16,110.21 -8.78,125.03 -15.91,244.02 -21.39,356.98 -5.48,112.96 -8.23,220.99 -8.23,324.08 59.23,-171.09 92.13,-344.37 98.71,-519.84 4.38,-85.54 1.09,-156.28 -9.87,-212.21 -10.97,-55.93 -21.94,-97.06 -32.9,-123.38z"/>
  <path id="2" class="fil0" d="M3828.05 1323.53c10.96,15.35 14.8,31.25 11.51,47.7 -3.29,16.45 -12.61,30.16 -27.96,41.13 -50.45,37.29 -99.8,72.38 -148.06,105.28 -48.25,32.9 -94.31,55.94 -138.18,69.1 -85.55,24.12 -164.51,29.61 -236.89,16.45 -50.45,-8.78 -95.96,-25.23 -136.54,-49.36 -40.58,-24.12 -76.77,-50.99 -108.57,-80.6 -31.81,-29.61 -59.77,-60.87 -83.9,-93.77 -24.13,-32.9 -46.06,-63.61 -65.8,-92.12l-32.9 -46.07c-26.33,48.26 -52.1,116.8 -77.31,205.64 -25.23,88.83 -48.81,193.56 -70.74,314.2 -13.16,81.16 -23.58,155.73 -31.26,223.73 -7.67,67.99 -13.7,122.83 -18.09,164.5 2.19,43.87 1.64,74.58 -1.65,92.13 -3.29,17.54 -10.42,31.8 -21.38,42.77 -15.36,10.97 -30.71,16.45 -46.06,16.45 -6.58,0 -16.45,-2.19 -29.61,-6.58 -4.39,-4.39 -10.42,-9.87 -18.1,-16.45 -7.68,-6.58 -13.71,-16.45 -18.1,-29.61 -2.19,-10.97 -2.74,-25.77 -1.64,-44.42 1.1,-18.64 2.74,-37.83 4.93,-57.58 -2.19,-39.48 -6.03,-92.12 -11.51,-157.92 -5.48,-65.8 -13.16,-134.9 -23.03,-207.28 -9.87,-72.38 -21.39,-144.21 -34.55,-215.5 -13.16,-71.29 -29.61,-134.35 -49.35,-189.18 -6.58,-17.55 -6.03,-34 1.65,-49.35 7.67,-15.36 20.28,-26.32 37.83,-32.9 17.55,-6.58 34,-6.04 49.35,1.64 15.36,7.68 26.32,20.29 32.9,37.84 17.55,43.87 30.16,94.86 37.84,152.99 7.68,58.12 17,112.41 27.97,162.86 48.25,-254.44 108.57,-427.72 180.95,-519.84 13.15,-17.55 26.86,-29.06 41.12,-34.55 14.26,-5.48 25.77,-8.22 34.54,-8.22 30.71,2.19 56.49,14.8 77.32,37.84 20.84,23.03 43.32,52.09 67.45,87.18 15.35,24.13 33.45,50.45 54.29,78.97 20.83,28.51 43.86,54.83 69.09,78.96 25.22,24.13 53.19,45.51 83.9,64.16 30.7,18.64 64.7,31.25 101.99,37.83 59.22,10.97 124.48,0.55 195.76,-31.25 71.29,-31.81 147.51,-76.22 228.66,-133.25 15.36,-10.97 31.81,-14.81 49.36,-11.52 17.54,3.29 31.8,12.61 42.77,27.97z"/>
 </g>
</svg>
